<svg width="22" height="22" viewBox="0 0 22 22" fill="none" xmlns="http://www.w3.org/2000/svg">
<path d="M19.75 1.79688H16.6875V0.53125C16.6875 0.419362 16.6414 0.312056 16.5594 0.232939C16.4773 0.153823 16.366 0.109375 16.25 0.109375C16.134 0.109375 16.0227 0.153823 15.9406 0.232939C15.8586 0.312056 15.8125 0.419362 15.8125 0.53125V1.79688H6.1875V0.53125C6.1875 0.419362 6.14141 0.312056 6.05936 0.232939C5.97731 0.153823 5.86603 0.109375 5.75 0.109375C5.63397 0.109375 5.52269 0.153823 5.44064 0.232939C5.35859 0.312056 5.3125 0.419362 5.3125 0.53125V1.79688H2.25C1.9019 1.79688 1.56806 1.93022 1.32192 2.16757C1.07578 2.40492 0.9375 2.72684 0.9375 3.0625V19.9375C0.9375 20.2732 1.07578 20.5951 1.32192 20.8324C1.56806 21.0698 1.9019 21.2031 2.25 21.2031H19.75C20.0981 21.2031 20.4319 21.0698 20.6781 20.8324C20.9242 20.5951 21.0625 20.2732 21.0625 19.9375V3.0625C21.0625 2.72684 20.9242 2.40492 20.6781 2.16757C20.4319 1.93022 20.0981 1.79688 19.75 1.79688ZM2.25 2.64062H5.3125V3.90625C5.3125 4.01814 5.35859 4.12544 5.44064 4.20456C5.52269 4.28368 5.63397 4.32812 5.75 4.32812C5.86603 4.32812 5.97731 4.28368 6.05936 4.20456C6.14141 4.12544 6.1875 4.01814 6.1875 3.90625V2.64062H15.8125V3.90625C15.8125 4.01814 15.8586 4.12544 15.9406 4.20456C16.0227 4.28368 16.134 4.32812 16.25 4.32812C16.366 4.32812 16.4773 4.28368 16.5594 4.20456C16.6414 4.12544 16.6875 4.01814 16.6875 3.90625V2.64062H19.75C19.866 2.64062 19.9773 2.68507 20.0594 2.76419C20.1414 2.84331 20.1875 2.95061 20.1875 3.0625V6.85938H1.8125V3.0625C1.8125 2.95061 1.85859 2.84331 1.94064 2.76419C2.02269 2.68507 2.13397 2.64062 2.25 2.64062ZM19.75 20.3594H2.25C2.13397 20.3594 2.02269 20.3149 1.94064 20.2358C1.85859 20.1567 1.8125 20.0494 1.8125 19.9375V7.70312H20.1875V19.9375C20.1875 20.0494 20.1414 20.1567 20.0594 20.2358C19.9773 20.3149 19.866 20.3594 19.75 20.3594ZM8.8125 10.6562V17.4062C8.8125 17.5181 8.76641 17.6254 8.68436 17.7046C8.60231 17.7837 8.49103 17.8281 8.375 17.8281C8.25897 17.8281 8.14769 17.7837 8.06564 17.7046C7.98359 17.6254 7.9375 17.5181 7.9375 17.4062V11.3386L6.82078 11.8776C6.71693 11.9276 6.59671 11.9359 6.48656 11.9005C6.37641 11.8651 6.28536 11.7889 6.23344 11.6888C6.18151 11.5886 6.17297 11.4727 6.20969 11.3665C6.2464 11.2603 6.32537 11.1725 6.42922 11.1224L8.17922 10.2787C8.24594 10.2465 8.3201 10.2313 8.39464 10.2345C8.46918 10.2377 8.54162 10.2593 8.60508 10.2971C8.66854 10.335 8.72091 10.3878 8.75722 10.4507C8.79352 10.5135 8.81255 10.5843 8.8125 10.6562ZM15.375 13.6094L12.75 16.9844H15.375C15.491 16.9844 15.6023 17.0288 15.6844 17.1079C15.7664 17.1871 15.8125 17.2944 15.8125 17.4062C15.8125 17.5181 15.7664 17.6254 15.6844 17.7046C15.6023 17.7837 15.491 17.8281 15.375 17.8281H11.875C11.7938 17.8281 11.7141 17.8063 11.645 17.7651C11.5759 17.7239 11.52 17.665 11.4837 17.5949C11.4474 17.5248 11.432 17.4464 11.4393 17.3684C11.4466 17.2903 11.4763 17.2158 11.525 17.1531L14.6728 13.1063C14.8455 12.8871 14.9385 12.6191 14.9375 12.3438C14.9378 12.0649 14.8426 11.7937 14.6667 11.5724C14.4908 11.3511 14.2439 11.192 13.9646 11.1198C13.6852 11.0477 13.389 11.0665 13.1219 11.1734C12.8548 11.2803 12.6318 11.4693 12.4875 11.7109C12.427 11.8028 12.332 11.8685 12.2224 11.8944C12.1128 11.9203 11.997 11.9043 11.8993 11.8499C11.8016 11.7954 11.7296 11.7067 11.6981 11.6022C11.6667 11.4977 11.6783 11.3855 11.7306 11.2891C11.9714 10.887 12.3431 10.5727 12.7879 10.395C13.2328 10.2173 13.7261 10.1862 14.1912 10.3063C14.6563 10.4265 15.0673 10.6913 15.3604 11.0597C15.6536 11.4281 15.8125 11.8794 15.8125 12.3438C15.8142 12.8004 15.6605 13.245 15.375 13.6094Z" fill="#333350"/>
</svg>
