<svg  width="20" height="20" viewBox="0 0 20 20" fill="none" xmlns="http://www.w3.org/2000/svg">
<path d="M17.8571 15.2857V11.7143C17.8568 11.3355 17.7061 10.9724 17.4383 10.7046C17.1705 10.4367 16.8073 10.2861 16.4286 10.2857H10.7143V6.71429H12.8571C13.2359 6.71391 13.5991 6.56328 13.8669 6.29545C14.1347 6.02762 14.2853 5.66448 14.2857 5.28571V2.42857C14.2853 2.04981 14.1347 1.68666 13.8669 1.41884C13.5991 1.15101 13.2359 1.00038 12.8571 1H7.14286C6.76409 1.00038 6.40095 1.15101 6.13312 1.41884C5.86529 1.68666 5.71466 2.04981 5.71429 2.42857V5.28571C5.71466 5.66448 5.86529 6.02762 6.13312 6.29545C6.40095 6.56328 6.76409 6.71391 7.14286 6.71429H9.28571V10.2857H3.57143C3.19266 10.2861 2.82952 10.4367 2.56169 10.7046C2.29387 10.9724 2.14324 11.3355 2.14286 11.7143V15.2857H0V21H5.71429V15.2857H3.57143V11.7143H9.28571V15.2857H7.14286V21H12.8571V15.2857H10.7143V11.7143H16.4286V15.2857H14.2857V21H20V15.2857H17.8571ZM7.14286 2.42857H12.8571V5.28571H7.14286V2.42857ZM4.28571 19.5714H1.42857V16.7143H4.28571V19.5714ZM11.4286 19.5714H8.57143V16.7143H11.4286V19.5714ZM18.5714 19.5714H15.7143V16.7143H18.5714V19.5714Z" fill="#333350"/>
</svg>
