<svg width="20" height="12" viewBox="0 0 20 12" fill="none" xmlns="http://www.w3.org/2000/svg">
<path d="M10.665 11.6898L19.9549 0.32521C19.9794 0.295514 19.9946 0.259825 19.9988 0.222244C20.003 0.184662 19.996 0.146712 19.9787 0.112751C19.9613 0.0787894 19.9343 0.0501953 19.9007 0.0302514C19.8671 0.0103075 19.8283 -0.000177005 19.7887 2.26089e-06L17.7492 2.26089e-06C17.6199 2.26089e-06 17.4959 0.0579852 17.4168 0.153783L10.0001 9.22935L2.58346 0.153783C2.50431 0.0554642 2.3803 2.26089e-06 2.25101 2.26089e-06L0.211502 2.26089e-06C0.0347271 2.26089e-06 -0.0628948 0.194119 0.0452805 0.32521L9.33522 11.6898C9.41408 11.7864 9.51495 11.8646 9.63016 11.9183C9.74538 11.9721 9.8719 12 10.0001 12C10.1283 12 10.2548 11.9721 10.3701 11.9183C10.4853 11.8646 10.5861 11.7864 10.665 11.6898Z" fill="#606060"/>
</svg>
