<svg width="21" height="21" viewBox="0 0 21 21" fill="none" xmlns="http://www.w3.org/2000/svg">
<path d="M6.4968 3.49677L5.27117 2.27114C3.21417 3.8396 1.85998 6.25658 1.73999 8.99924H3.45416C3.58272 6.72797 4.74835 4.73954 6.4968 3.49677ZM17.1161 8.99924H18.8302C18.7017 6.25658 17.3475 3.8396 15.299 2.27114L14.082 3.49677C15.8133 4.73954 16.9875 6.72797 17.1161 8.99924ZM15.4276 9.42779C15.4276 6.79654 14.022 4.59384 11.5707 4.01102V3.4282C11.5707 2.71682 10.9965 2.14258 10.2851 2.14258C9.57373 2.14258 8.99949 2.71682 8.99949 3.4282V4.01102C6.53966 4.59384 5.14261 6.78797 5.14261 9.42779V13.7132L3.42844 15.4274V16.2845H17.1418V15.4274L15.4276 13.7132V9.42779ZM10.2851 18.8557C10.4051 18.8557 10.5165 18.8471 10.6279 18.8214C11.185 18.7014 11.6393 18.3243 11.8621 17.8101C11.9479 17.6044 11.9907 17.3815 11.9907 17.1415H8.56237C8.57094 18.0843 9.33375 18.8557 10.2851 18.8557Z" fill="black" fill-opacity="0.54"/>
</svg>
