<svg width="20" height="20" viewBox="0 0 20 20" fill="none" xmlns="http://www.w3.org/2000/svg">
<path d="M13.9271 12.7074C13.2082 12.7074 12.5954 12.4058 12.0888 11.8026C11.5829 11.1985 11.33 10.4656 11.33 9.60407C11.33 8.74251 11.5814 8.00781 12.0841 7.39997C12.5877 6.79214 13.1985 6.48822 13.9167 6.48822C14.6348 6.48822 15.2472 6.79028 15.7539 7.3944C16.2605 7.99665 16.5139 8.72903 16.5139 9.59152C16.5139 10.454 16.2621 11.1892 15.7585 11.797C15.2565 12.4039 14.6461 12.7074 13.9271 12.7074ZM7.84382 20V18.4246C7.84382 18.1207 7.90696 17.8312 8.03323 17.5561C8.16028 17.2819 8.33072 17.0617 8.54453 16.8953C9.35719 16.3395 10.2094 15.9138 11.101 15.6183C11.9919 15.3227 12.932 15.175 13.9213 15.175C14.9106 15.175 15.8511 15.3227 16.7428 15.6183C17.6345 15.9138 18.4866 16.3395 19.2993 16.8953C19.5131 17.0626 19.6835 17.2829 19.8106 17.5561C19.9369 17.8312 20 18.1203 20 18.4233V20H7.84382ZM0 12.5471V11.1529H8.13433V12.5471H0ZM0 1.39412V0H12.7825V1.39412H0ZM9.07675 6.97058H0V5.57647H9.74261C9.60548 5.79302 9.48076 6.01283 9.36843 6.23588C9.25609 6.45894 9.1581 6.70384 9.07675 6.97058Z" fill="#333350"/>
</svg>


