<svg width="85" height="83" viewBox="0 0 85 83" fill="none" xmlns="http://www.w3.org/2000/svg">
<path fill-rule="evenodd" clip-rule="evenodd" d="M57.6666 30.3658C57.6666 34.3031 56.0687 38.0791 53.2244 40.8632C50.3801 43.6472 46.5224 45.2113 42.5 45.2113C38.4775 45.2113 34.6198 43.6472 31.7755 40.8632C28.9312 38.0791 27.3333 34.3031 27.3333 30.3658C27.3333 26.4285 28.9312 22.6525 31.7755 19.8684C34.6198 17.0843 38.4775 15.5203 42.5 15.5203C46.5224 15.5203 50.3801 17.0843 53.2244 19.8684C56.0687 22.6525 57.6666 26.4285 57.6666 30.3658ZM50.0833 30.3658C50.0833 32.3344 49.2844 34.2224 47.8622 35.6145C46.4401 37.0065 44.5112 37.7886 42.5 37.7886C40.4888 37.7886 38.5599 37.0065 37.1378 35.6145C35.7156 34.2224 34.9166 32.3344 34.9166 30.3658C34.9166 28.3972 35.7156 26.5091 37.1378 25.1171C38.5599 23.7251 40.4888 22.943 42.5 22.943C44.5112 22.943 46.4401 23.7251 47.8622 25.1171C49.2844 26.5091 50.0833 28.3972 50.0833 30.3658Z" fill="#22B1E2"/>
<path fill-rule="evenodd" clip-rule="evenodd" d="M42.5 0.674805C19.4656 0.674805 0.791656 18.9534 0.791656 41.5C0.791656 64.0467 19.4656 82.3252 42.5 82.3252C65.5344 82.3252 84.2083 64.0467 84.2083 41.5C84.2083 18.9534 65.5344 0.674805 42.5 0.674805ZM8.37499 41.5C8.37499 49.2568 11.0784 56.3975 15.6095 62.0685C18.7916 57.9782 22.8967 54.6633 27.6042 52.3829C32.3117 50.1025 37.494 48.9183 42.7464 48.9228C47.9309 48.918 53.0481 50.0715 57.7081 52.2956C62.3681 54.5197 66.448 57.7556 69.6369 61.7567C72.9222 57.5391 75.1342 52.6164 76.09 47.3959C77.0457 42.1753 76.7176 36.8071 75.1329 31.7353C73.5483 26.6635 70.7525 22.034 66.977 18.2298C63.2015 14.4256 58.5549 11.5561 53.4214 9.85865C48.288 8.16125 42.8154 7.68476 37.4565 8.46861C32.0976 9.25246 27.0064 11.2741 22.6042 14.3663C18.202 17.4585 14.6154 21.5323 12.141 26.2507C9.66661 30.969 8.37567 36.1963 8.37499 41.5ZM42.5 74.9025C34.6662 74.914 27.0689 72.2761 20.9937 67.4352C23.439 64.0086 26.6938 61.2109 30.4811 59.2801C34.2685 57.3493 38.4762 56.3426 42.7464 56.3455C46.9634 56.3422 51.1203 57.3238 54.8719 59.2086C58.6235 61.0934 61.8616 63.8272 64.3172 67.1828C58.1948 72.1809 50.4723 74.9134 42.5 74.9025Z" fill="#22B1E2"/>
</svg>           
