<svg width="20" height="20" viewBox="0 0 20 20" fill="none" xmlns="http://www.w3.org/2000/svg">
<path d="M18.3333 5.00008V7.01675C18.3333 8.33341 17.4999 9.16675 16.1833 9.16675H13.3333V3.34175C13.3333 2.41675 14.0916 1.66675 15.0166 1.66675C15.9249 1.67508 16.7583 2.04175 17.3583 2.64175C17.9583 3.25008 18.3333 4.08341 18.3333 5.00008Z" stroke="#333350" stroke-width="1.5" stroke-miterlimit="10" stroke-linecap="round" stroke-linejoin="round"/>
<path d="M1.66675 5.83341V17.5001C1.66675 18.1917 2.45008 18.5834 3.00008 18.1668L4.42508 17.1001C4.75841 16.8501 5.22508 16.8834 5.52508 17.1834L6.90841 18.5751C7.23341 18.9001 7.76675 18.9001 8.09175 18.5751L9.49175 17.1751C9.78341 16.8834 10.2501 16.8501 10.5751 17.1001L12.0001 18.1668C12.5501 18.5751 13.3334 18.1834 13.3334 17.5001V3.33341C13.3334 2.41675 14.0834 1.66675 15.0001 1.66675H5.83341H5.00008C2.50008 1.66675 1.66675 3.15841 1.66675 5.00008V5.83341Z" stroke="#333350" stroke-width="1.5" stroke-miterlimit="10" stroke-linecap="round" stroke-linejoin="round"/>
<path d="M7.5 10.8416H10" stroke="#333350" stroke-width="1.5" stroke-linecap="round" stroke-linejoin="round"/>
<path d="M7.5 7.5083H10" stroke="#333350" stroke-width="1.5" stroke-linecap="round" stroke-linejoin="round"/>
<path d="M4.99634 10.8333H5.00382" stroke="#333350" stroke-width="2" stroke-linecap="round" stroke-linejoin="round"/>
<path d="M4.99634 7.5H5.00382" stroke="#333350" stroke-width="2" stroke-linecap="round" stroke-linejoin="round"/>
</svg>
