<svg width="45" height="45" viewBox="0 0 45 45" fill="none" xmlns="http://www.w3.org/2000/svg">
<path d="M21.4875 25.7435C24.3973 25.7435 26.7562 23.3847 26.7562 20.4748C26.7562 17.5649 24.3973 15.2061 21.4875 15.2061C18.5776 15.2061 16.2188 17.5649 16.2188 20.4748C16.2188 23.3847 18.5776 25.7435 21.4875 25.7435Z" stroke="#333350" stroke-width="2" stroke-linecap="round" stroke-linejoin="round"/>
<path d="M31.2187 37.8747C31.2187 33.5059 26.8687 29.9434 21.4875 29.9434C16.1062 29.9434 11.7562 33.4872 11.7562 37.8747" stroke="#333350" stroke-width="2" stroke-linecap="round" stroke-linejoin="round"/>
<path d="M39.375 23.4375C39.375 33.2812 31.4062 41.25 21.5625 41.25C11.7188 41.25 3.75 33.2812 3.75 23.4375C3.75 13.5938 11.7188 5.625 21.5625 5.625C24.0187 5.625 26.3625 6.11248 28.5 7.01248C28.2563 7.76248 28.125 8.55 28.125 9.375C28.125 10.7812 28.5188 12.1125 29.2125 13.2375C29.5875 13.875 30.075 14.4562 30.6375 14.9437C31.95 16.1437 33.6938 16.875 35.625 16.875C36.45 16.875 37.2375 16.7437 37.9688 16.4812C38.8687 18.6187 39.375 20.9813 39.375 23.4375Z" stroke="#333350" stroke-width="2" stroke-linecap="round" stroke-linejoin="round"/>
<path d="M43.125 9.375C43.125 9.975 43.05 10.5562 42.9 11.1187C42.7312 11.8687 42.4312 12.6 42.0375 13.2375C41.1375 14.7562 39.6937 15.9375 37.9687 16.4812C37.2375 16.7437 36.45 16.875 35.625 16.875C33.6937 16.875 31.95 16.1437 30.6375 14.9437C30.075 14.4562 29.5875 13.875 29.2125 13.2375C28.5188 12.1125 28.125 10.7812 28.125 9.375C28.125 8.55 28.2563 7.76248 28.5 7.01248C28.8563 5.92498 29.4563 4.95004 30.2438 4.14379C31.6125 2.73754 33.525 1.875 35.625 1.875C37.8375 1.875 39.8438 2.83128 41.1938 4.36878C42.3938 5.70003 43.125 7.4625 43.125 9.375Z" stroke="#333350" stroke-width="2" stroke-miterlimit="10" stroke-linecap="round" stroke-linejoin="round"/>
<path d="M38.4187 9.3374H32.8312" stroke="#333350" stroke-width="2" stroke-miterlimit="10" stroke-linecap="round" stroke-linejoin="round"/>
<path d="M35.625 6.6001V12.2063" stroke="#333350" stroke-width="2" stroke-miterlimit="10" stroke-linecap="round" stroke-linejoin="round"/>
</svg>
